<!-- Generated by IcoMoon.io -->
<svg version="1.1" xmlns="http://www.w3.org/2000/svg" width="143" height="32" viewBox="0 0 143 32">
<title>Logo</title>
<path fill="#fff" d="M13.582 28.681l16.959-0.149-12.181-20.853-9.951 17.736-2.679 0.024 11.441-19.892-1.913-3.275-15.257 26.527 10.334-0.091 8.084-14.407 6.406 10.968-9.866 0.087zM40.104 31.993l-18.553-31.86 0.219-0.13 18.554 31.86zM41.768 12.332v-0.031c0.023-3.101 2.542-5.606 5.646-5.606 3.093 0 5.606 2.487 5.646 5.571l0 0.004v0.031c-0.037 3.090-2.55 5.581-5.646 5.581-3.085 0-5.592-2.474-5.645-5.545l-0-0.005zM50.094 12.332v-0.031c0.002-0.043 0.004-0.093 0.004-0.143 0-1.505-1.2-2.729-2.696-2.768l-0.004-0c-1.474 0.033-2.656 1.236-2.656 2.715 0 0.058 0.002 0.116 0.005 0.173l-0-0.008v0.031c-0.002 0.044-0.004 0.095-0.004 0.146 0 1.499 1.193 2.719 2.681 2.764l0.004 0c1.481-0.026 2.671-1.233 2.671-2.717 0-0.057-0.002-0.114-0.005-0.171l0 0.008zM56.072 6.912h2.713l4.313 5.698v-5.698h2.875v10.779h-2.548l-4.478-5.913v5.913h-2.874v-10.779zM71.889 9.529h-3.145v-2.617h9.195v2.617h-3.145v8.162h-2.904v-8.162zM80.772 6.912h2.921v10.779h-2.921v-10.779zM86.749 12.332v-0.031c-0.001-0.043-0.002-0.094-0.002-0.144 0-3.016 2.445-5.461 5.461-5.461 0.023 0 0.047 0 0.070 0l-0.004-0c0.066-0.003 0.144-0.005 0.222-0.005 1.753 0 3.299 0.886 4.215 2.235l0.011 0.018-2.187 1.74c-0.497-0.754-1.335-1.248-2.289-1.263l-0.002-0c-1.467 0-2.501 1.278-2.501 2.849v0.031c0 1.617 1.033 2.88 2.501 2.88 0.99-0.010 1.858-0.524 2.359-1.298l0.007-0.011 2.187 1.6c-0.946 1.474-2.577 2.437-4.432 2.437-0.074 0-0.148-0.002-0.221-0.005l0.010 0c-0.002 0-0.005 0-0.008 0-2.982 0-5.4-2.418-5.4-5.4 0-0.061 0.001-0.122 0.003-0.182l-0 0.009zM99.541 6.912h8.432v2.541h-5.555v1.632h5.032v2.356h-5.032v1.71h5.63v2.541h-8.505v-10.78zM111.030 6.912h2.904v8.162h5.077v2.618h-7.982v-10.78zM121.756 6.912h2.904v8.162h5.077v2.618h-7.982v-10.78zM131.522 12.332v-0.031c0-0.005-0-0.010-0-0.015 0-3.118 2.528-5.646 5.646-5.646 3.113 0 5.637 2.519 5.646 5.63v0.032c-0.023 3.101-2.542 5.606-5.646 5.606-3.093 0-5.606-2.488-5.646-5.571l-0-0.004zM139.849 12.332v-0.031c0.002-0.043 0.004-0.093 0.004-0.143 0-1.505-1.2-2.729-2.696-2.768l-0.004-0c-1.474 0.033-2.656 1.236-2.656 2.715 0 0.058 0.002 0.116 0.005 0.173l-0-0.008v0.031c-0.002 0.044-0.004 0.095-0.004 0.146 0 1.499 1.193 2.719 2.681 2.764l0.004 0c1.482-0.025 2.673-1.232 2.673-2.717 0-0.057-0.002-0.114-0.005-0.17l0 0.008zM30.473 15.1v-3.569l2.667 4.189h0.059l2.681-4.22v6.191h2.891v-10.779h-3.071l-2.501 4.173-2.503-4.173h-3.068v3.303zM42.367 23.53h0.402v3.592h-0.402v-3.592zM45.849 23.53h0.377l2.244 2.878v-2.878h0.392v3.592h-0.321l-2.3-2.944v2.945h-0.392v-3.593zM52.847 23.904h-1.196v-0.374h2.798v0.374h-1.196v3.217h-0.407v-3.217zM57.241 23.53h2.575v0.369h-2.172v1.227h1.943v0.369h-1.943v1.257h2.197v0.37h-2.6v-3.592zM62.687 23.53h1.531c0.022-0.001 0.049-0.002 0.075-0.002 0.361 0 0.691 0.137 0.939 0.362l-0.001-0.001c0.17 0.179 0.275 0.421 0.275 0.688 0 0.007-0 0.014-0 0.021l0-0.001v0.010c0 0.001 0 0.002 0 0.003 0 0.55-0.424 1.001-0.962 1.044l-0.004 0 1.093 1.468h-0.494l-1.032-1.396h-1.017v1.396h-0.402v-3.591zM64.183 25.362c0.038 0.006 0.081 0.010 0.126 0.010 0.422 0 0.767-0.33 0.79-0.746l0-0.002v-0.011c-0.017-0.405-0.35-0.727-0.757-0.727-0.054 0-0.107 0.006-0.158 0.016l0.005-0.001h-1.099v1.462h1.093zM68.404 23.53h0.377l2.244 2.878v-2.878h0.392v3.592h-0.321l-2.3-2.945v2.945h-0.392v-3.592zM75.78 23.504h0.376l1.623 3.615h-0.433l-0.415-0.948h-1.938l-0.423 0.948h-0.415zM76.772 25.808l-0.809-1.832-0.814 1.832h1.623zM81.003 23.904h-1.196v-0.374h2.801v0.374h-1.196v3.217h-0.407v-3.217zM85.432 23.53h0.401v3.592h-0.401v-3.592zM88.756 25.336v-0.010c-0-0.015-0.001-0.033-0.001-0.051 0-1.003 0.813-1.817 1.817-1.817s1.817 0.813 1.817 1.817c0 0.014-0 0.029-0.001 0.043l0-0.002v0.011c0 0.015 0.001 0.033 0.001 0.051 0 1.003-0.813 1.817-1.817 1.817s-1.817-0.813-1.817-1.817c0-0.014 0-0.029 0.001-0.043l-0 0.002zM91.972 25.336v-0.010c0.001-0.018 0.001-0.038 0.001-0.059 0-0.78-0.627-1.413-1.405-1.422h-0.001c-0.772 0.006-1.395 0.633-1.395 1.406 0 0.024 0.001 0.047 0.002 0.070l-0-0.003v0.011c-0.001 0.018-0.001 0.038-0.001 0.059 0 0.78 0.627 1.413 1.405 1.422h0.001c0.771-0.006 1.394-0.633 1.394-1.406 0-0.024-0.001-0.047-0.002-0.071l0 0.003zM95.276 23.53h0.377l2.244 2.878v-2.878h0.392v3.592h-0.321l-2.3-2.944v2.945h-0.392v-3.593zM102.652 23.504h0.377l1.623 3.615h-0.432l-0.415-0.948h-1.938l-0.423 0.948h-0.412zM103.644 25.808l-0.809-1.832-0.814 1.832h1.623zM107.392 23.53h0.401v3.217h2.004v0.375h-2.407v-3.592zM115.985 25.336v-0.010c-0.001-0.019-0.001-0.040-0.001-0.062 0-0.988 0.799-1.79 1.786-1.796h0.001c0.024-0.001 0.052-0.002 0.079-0.002 0.481 0 0.919 0.182 1.25 0.481l-0.002-0.001-0.259 0.308c-0.27-0.254-0.634-0.411-1.036-0.411-0.017 0-0.034 0-0.050 0.001l0.002-0c-0.754 0.023-1.356 0.64-1.356 1.397 0 0.026 0.001 0.053 0.002 0.079l-0-0.004v0.011c-0.003 0.033-0.004 0.071-0.004 0.11 0 0.764 0.619 1.383 1.383 1.383 0.011 0 0.022-0 0.033-0l-0.002 0c0.39-0.002 0.748-0.137 1.031-0.362l-0.003 0.003v-0.894h-1.083v-0.364h1.47v1.431c-0.377 0.34-0.879 0.548-1.43 0.549h-0c-0.018 0.001-0.038 0.001-0.059 0.001-0.968 0-1.753-0.785-1.753-1.753 0-0.033 0.001-0.066 0.003-0.099l-0 0.005zM122.169 23.53h1.532c0.022-0.001 0.048-0.002 0.075-0.002 0.361 0 0.691 0.137 0.939 0.362l-0.001-0.001c0.17 0.178 0.275 0.421 0.275 0.688 0 0.007-0 0.014-0 0.021l0-0.001v0.010c0 0.001 0 0.001 0 0.002 0 0.55-0.424 1.001-0.963 1.044l-0.004 0 1.093 1.468h-0.492l-1.032-1.396h-1.018v1.396h-0.402v-3.591zM123.665 25.362c0.038 0.006 0.081 0.010 0.126 0.010 0.422 0 0.767-0.33 0.79-0.746l0-0.002v-0.011c-0.017-0.405-0.35-0.727-0.757-0.727-0.054 0-0.107 0.006-0.158 0.016l0.005-0.001h-1.098v1.462h1.093zM127.728 25.336v-0.010c-0-0.011-0-0.024-0-0.038 0-1.003 0.813-1.816 1.816-1.816s1.816 0.813 1.816 1.816c0 0.009-0 0.019-0 0.028l0-0.001v0.011c0 0.015 0.001 0.033 0.001 0.051 0 1.003-0.813 1.816-1.816 1.816s-1.816-0.813-1.816-1.816c0-0.014 0-0.029 0.001-0.043l-0 0.002zM130.943 25.336v-0.010c0.001-0.018 0.001-0.038 0.001-0.059 0-0.779-0.627-1.412-1.404-1.422h-0.001c-0.772 0.005-1.396 0.633-1.396 1.406 0 0.024 0.001 0.047 0.002 0.070l-0-0.003v0.011c-0.001 0.018-0.001 0.038-0.001 0.059 0 0.78 0.627 1.413 1.405 1.422h0.001c0.772-0.005 1.396-0.633 1.396-1.406 0-0.024-0.001-0.047-0.002-0.071l0 0.003zM134.193 25.618v-2.088h0.402v2.062c-0.008 0.048-0.012 0.103-0.012 0.159 0 0.582 0.471 1.053 1.053 1.053 0.017 0 0.033-0 0.050-0.001l-0.002 0c0.017 0.001 0.037 0.002 0.057 0.002 0.568 0 1.029-0.461 1.029-1.029 0-0.056-0.004-0.111-0.013-0.164l0.001 0.006v-2.088h0.402v2.057c0.002 0.032 0.004 0.070 0.004 0.108 0 0.82-0.665 1.486-1.486 1.486s-1.486-0.665-1.486-1.486c0-0.027 0.001-0.054 0.002-0.081l-0 0.004zM140.148 23.53h1.333c0.051-0.008 0.111-0.013 0.171-0.013 0.638 0 1.156 0.514 1.162 1.151v0.011c-0.025 0.661-0.566 1.187-1.231 1.187-0.059 0-0.118-0.004-0.175-0.012l0.007 0.001h-0.865v1.268h-0.403v-3.592zM141.431 25.486c0.039 0.006 0.085 0.010 0.131 0.010 0.451 0 0.82-0.353 0.845-0.799l0-0.002v-0.011c-0.007-0.44-0.366-0.794-0.807-0.794-0.053 0-0.105 0.005-0.155 0.015l0.005-0.001h-0.9v1.577h0.88z"></path>
</svg>
