<svg aria-hidden="true" style="position: absolute; width: 0; height: 0; overflow: hidden;" version="1.1" xmlns="http://www.w3.org/2000/svg" xmlns:xlink="http://www.w3.org/1999/xlink">
<defs>
<symbol id="icon-FilledEllipse" viewBox="0 0 32 32">
<path stroke-linejoin="miter" stroke-linecap="butt" stroke-miterlimit="4" stroke-width="1.3333" d="M16 0c8.831 0 16 7.169 16 16s-7.169 16-16 16-16-7.169-16-16 7.169-16 16-16zM16 1.333c8.095 0 14.667 6.572 14.667 14.667s-6.572 14.667-14.667 14.667-14.667-6.572-14.667-14.667 6.572-14.667 14.667-14.667z"></path>
</symbol>
<symbol id="icon-Heart" viewBox="0 0 32 32">
<path d="M16 5.664c-4.197-7.203-16-5.1-16 3.925 0 6.215 7.428 12.569 16 21.077 8.573-8.508 16-14.863 16-21.077 0-9.056-11.833-11.075-16-3.925z"></path>
</symbol>
<symbol id="icon-time" viewBox="0 0 32 32">
<path d="M16 2.667c7.352 0 13.333 5.981 13.333 13.333s-5.981 13.333-13.333 13.333-13.333-5.981-13.333-13.333 5.981-13.333 13.333-13.333zM16 0c-8.836 0-16 7.164-16 16s7.164 16 16 16 16-7.164 16-16-7.164-16-16-16zM23.797 16.612c0.269 0.051 0.269 0.444 0.001 0.496-2.543 0.481-8.060 1.481-8.729 1.481-0.959 0-1.735-0.776-1.735-1.735 0-0.683 1.027-7.263 1.5-9.927 0.045-0.256 0.416-0.241 0.457 0.019l1.313 8.317 7.192 1.348z"></path>
</symbol>
<symbol id="icon-Ellipse" viewBox="0 0 32 32">
<path fill="none" stroke="#fff" style="stroke: var(--color1, #fff)" stroke-linejoin="miter" stroke-linecap="butt" stroke-miterlimit="4" stroke-width="1.3333" d="M16 0c8.831 0 16 7.169 16 16s-7.169 16-16 16-16-7.169-16-16 7.169-16 16-16zM16 1.333c8.095 0 14.667 6.572 14.667 14.667s-6.572 14.667-14.667 14.667-14.667-6.572-14.667-14.667 6.572-14.667 14.667-14.667z"></path>
</symbol>
<symbol id="icon-email" viewBox="0 0 32 32">
<path fill="#7e5aff" style="fill: var(--color2, #7e5aff)" d="M0.035 32l15.965-15.476 15.965 15.476h-31.931zM15.987 0.052l-15.987 11.633v16.635l9.803-9.503-7.537-5.484 13.721-9.984 13.745 9.984-7.54 5.477 9.808 9.509v-16.635l-16.013-11.633z"></path>
</symbol>
<symbol id="icon-location" viewBox="0 0 32 32">
<path d="M16 0c-5.597 0-10.667 4.537-10.667 10.136 0 5.597 4.625 12.28 10.667 21.864 6.041-9.584 10.667-16.267 10.667-21.864 0-5.599-5.068-10.136-10.667-10.136zM16 14.667c-2.209 0-4-1.791-4-4s1.791-4 4-4 4 1.791 4 4-1.791 4-4 4z"></path>
</symbol>
<symbol id="icon-Logo" viewBox="0 0 143 32">
<path fill="#fff" style="fill: var(--color1, #fff)" d="M13.582 28.681l16.959-0.149-12.181-20.853-9.951 17.736-2.679 0.024 11.441-19.892-1.913-3.275-15.257 26.527 10.334-0.091 8.084-14.407 6.406 10.968-9.866 0.087zM40.104 31.993l-18.553-31.86 0.219-0.13 18.554 31.86zM41.768 12.332v-0.031c0.023-3.101 2.542-5.606 5.646-5.606 3.093 0 5.606 2.487 5.646 5.571l0 0.004v0.031c-0.037 3.090-2.55 5.581-5.646 5.581-3.085 0-5.592-2.474-5.645-5.545l-0-0.005zM50.094 12.332v-0.031c0.002-0.043 0.004-0.093 0.004-0.143 0-1.505-1.2-2.729-2.696-2.768l-0.004-0c-1.474 0.033-2.656 1.236-2.656 2.715 0 0.058 0.002 0.116 0.005 0.173l-0-0.008v0.031c-0.002 0.044-0.004 0.095-0.004 0.146 0 1.499 1.193 2.719 2.681 2.764l0.004 0c1.481-0.026 2.671-1.233 2.671-2.717 0-0.057-0.002-0.114-0.005-0.171l0 0.008zM56.072 6.912h2.713l4.313 5.698v-5.698h2.875v10.779h-2.548l-4.478-5.913v5.913h-2.874v-10.779zM71.889 9.529h-3.145v-2.617h9.195v2.617h-3.145v8.162h-2.904v-8.162zM80.772 6.912h2.921v10.779h-2.921v-10.779zM86.749 12.332v-0.031c-0.001-0.043-0.002-0.094-0.002-0.144 0-3.016 2.445-5.461 5.461-5.461 0.023 0 0.047 0 0.070 0l-0.004-0c0.066-0.003 0.144-0.005 0.222-0.005 1.753 0 3.299 0.886 4.215 2.235l0.011 0.018-2.187 1.74c-0.497-0.754-1.335-1.248-2.289-1.263l-0.002-0c-1.467 0-2.501 1.278-2.501 2.849v0.031c0 1.617 1.033 2.88 2.501 2.88 0.99-0.010 1.858-0.524 2.359-1.298l0.007-0.011 2.187 1.6c-0.946 1.474-2.577 2.437-4.432 2.437-0.074 0-0.148-0.002-0.221-0.005l0.010 0c-0.002 0-0.005 0-0.008 0-2.982 0-5.4-2.418-5.4-5.4 0-0.061 0.001-0.122 0.003-0.182l-0 0.009zM99.541 6.912h8.432v2.541h-5.555v1.632h5.032v2.356h-5.032v1.71h5.63v2.541h-8.505v-10.78zM111.030 6.912h2.904v8.162h5.077v2.618h-7.982v-10.78zM121.756 6.912h2.904v8.162h5.077v2.618h-7.982v-10.78zM131.522 12.332v-0.031c0-0.005-0-0.010-0-0.015 0-3.118 2.528-5.646 5.646-5.646 3.113 0 5.637 2.519 5.646 5.63v0.032c-0.023 3.101-2.542 5.606-5.646 5.606-3.093 0-5.606-2.488-5.646-5.571l-0-0.004zM139.849 12.332v-0.031c0.002-0.043 0.004-0.093 0.004-0.143 0-1.505-1.2-2.729-2.696-2.768l-0.004-0c-1.474 0.033-2.656 1.236-2.656 2.715 0 0.058 0.002 0.116 0.005 0.173l-0-0.008v0.031c-0.002 0.044-0.004 0.095-0.004 0.146 0 1.499 1.193 2.719 2.681 2.764l0.004 0c1.482-0.025 2.673-1.232 2.673-2.717 0-0.057-0.002-0.114-0.005-0.17l0 0.008zM30.473 15.1v-3.569l2.667 4.189h0.059l2.681-4.22v6.191h2.891v-10.779h-3.071l-2.501 4.173-2.503-4.173h-3.068v3.303zM42.367 23.53h0.402v3.592h-0.402v-3.592zM45.849 23.53h0.377l2.244 2.878v-2.878h0.392v3.592h-0.321l-2.3-2.944v2.945h-0.392v-3.593zM52.847 23.904h-1.196v-0.374h2.798v0.374h-1.196v3.217h-0.407v-3.217zM57.241 23.53h2.575v0.369h-2.172v1.227h1.943v0.369h-1.943v1.257h2.197v0.37h-2.6v-3.592zM62.687 23.53h1.531c0.022-0.001 0.049-0.002 0.075-0.002 0.361 0 0.691 0.137 0.939 0.362l-0.001-0.001c0.17 0.179 0.275 0.421 0.275 0.688 0 0.007-0 0.014-0 0.021l0-0.001v0.010c0 0.001 0 0.002 0 0.003 0 0.55-0.424 1.001-0.962 1.044l-0.004 0 1.093 1.468h-0.494l-1.032-1.396h-1.017v1.396h-0.402v-3.591zM64.183 25.362c0.038 0.006 0.081 0.010 0.126 0.010 0.422 0 0.767-0.33 0.79-0.746l0-0.002v-0.011c-0.017-0.405-0.35-0.727-0.757-0.727-0.054 0-0.107 0.006-0.158 0.016l0.005-0.001h-1.099v1.462h1.093zM68.404 23.53h0.377l2.244 2.878v-2.878h0.392v3.592h-0.321l-2.3-2.945v2.945h-0.392v-3.592zM75.78 23.504h0.376l1.623 3.615h-0.433l-0.415-0.948h-1.938l-0.423 0.948h-0.415zM76.772 25.808l-0.809-1.832-0.814 1.832h1.623zM81.003 23.904h-1.196v-0.374h2.801v0.374h-1.196v3.217h-0.407v-3.217zM85.432 23.53h0.401v3.592h-0.401v-3.592zM88.756 25.336v-0.010c-0-0.015-0.001-0.033-0.001-0.051 0-1.003 0.813-1.817 1.817-1.817s1.817 0.813 1.817 1.817c0 0.014-0 0.029-0.001 0.043l0-0.002v0.011c0 0.015 0.001 0.033 0.001 0.051 0 1.003-0.813 1.817-1.817 1.817s-1.817-0.813-1.817-1.817c0-0.014 0-0.029 0.001-0.043l-0 0.002zM91.972 25.336v-0.010c0.001-0.018 0.001-0.038 0.001-0.059 0-0.78-0.627-1.413-1.405-1.422h-0.001c-0.772 0.006-1.395 0.633-1.395 1.406 0 0.024 0.001 0.047 0.002 0.070l-0-0.003v0.011c-0.001 0.018-0.001 0.038-0.001 0.059 0 0.78 0.627 1.413 1.405 1.422h0.001c0.771-0.006 1.394-0.633 1.394-1.406 0-0.024-0.001-0.047-0.002-0.071l0 0.003zM95.276 23.53h0.377l2.244 2.878v-2.878h0.392v3.592h-0.321l-2.3-2.944v2.945h-0.392v-3.593zM102.652 23.504h0.377l1.623 3.615h-0.432l-0.415-0.948h-1.938l-0.423 0.948h-0.412zM103.644 25.808l-0.809-1.832-0.814 1.832h1.623zM107.392 23.53h0.401v3.217h2.004v0.375h-2.407v-3.592zM115.985 25.336v-0.010c-0.001-0.019-0.001-0.040-0.001-0.062 0-0.988 0.799-1.79 1.786-1.796h0.001c0.024-0.001 0.052-0.002 0.079-0.002 0.481 0 0.919 0.182 1.25 0.481l-0.002-0.001-0.259 0.308c-0.27-0.254-0.634-0.411-1.036-0.411-0.017 0-0.034 0-0.050 0.001l0.002-0c-0.754 0.023-1.356 0.64-1.356 1.397 0 0.026 0.001 0.053 0.002 0.079l-0-0.004v0.011c-0.003 0.033-0.004 0.071-0.004 0.11 0 0.764 0.619 1.383 1.383 1.383 0.011 0 0.022-0 0.033-0l-0.002 0c0.39-0.002 0.748-0.137 1.031-0.362l-0.003 0.003v-0.894h-1.083v-0.364h1.47v1.431c-0.377 0.34-0.879 0.548-1.43 0.549h-0c-0.018 0.001-0.038 0.001-0.059 0.001-0.968 0-1.753-0.785-1.753-1.753 0-0.033 0.001-0.066 0.003-0.099l-0 0.005zM122.169 23.53h1.532c0.022-0.001 0.048-0.002 0.075-0.002 0.361 0 0.691 0.137 0.939 0.362l-0.001-0.001c0.17 0.178 0.275 0.421 0.275 0.688 0 0.007-0 0.014-0 0.021l0-0.001v0.010c0 0.001 0 0.001 0 0.002 0 0.55-0.424 1.001-0.963 1.044l-0.004 0 1.093 1.468h-0.492l-1.032-1.396h-1.018v1.396h-0.402v-3.591zM123.665 25.362c0.038 0.006 0.081 0.010 0.126 0.010 0.422 0 0.767-0.33 0.79-0.746l0-0.002v-0.011c-0.017-0.405-0.35-0.727-0.757-0.727-0.054 0-0.107 0.006-0.158 0.016l0.005-0.001h-1.098v1.462h1.093zM127.728 25.336v-0.010c-0-0.011-0-0.024-0-0.038 0-1.003 0.813-1.816 1.816-1.816s1.816 0.813 1.816 1.816c0 0.009-0 0.019-0 0.028l0-0.001v0.011c0 0.015 0.001 0.033 0.001 0.051 0 1.003-0.813 1.816-1.816 1.816s-1.816-0.813-1.816-1.816c0-0.014 0-0.029 0.001-0.043l-0 0.002zM130.943 25.336v-0.010c0.001-0.018 0.001-0.038 0.001-0.059 0-0.779-0.627-1.412-1.404-1.422h-0.001c-0.772 0.005-1.396 0.633-1.396 1.406 0 0.024 0.001 0.047 0.002 0.070l-0-0.003v0.011c-0.001 0.018-0.001 0.038-0.001 0.059 0 0.78 0.627 1.413 1.405 1.422h0.001c0.772-0.005 1.396-0.633 1.396-1.406 0-0.024-0.001-0.047-0.002-0.071l0 0.003zM134.193 25.618v-2.088h0.402v2.062c-0.008 0.048-0.012 0.103-0.012 0.159 0 0.582 0.471 1.053 1.053 1.053 0.017 0 0.033-0 0.050-0.001l-0.002 0c0.017 0.001 0.037 0.002 0.057 0.002 0.568 0 1.029-0.461 1.029-1.029 0-0.056-0.004-0.111-0.013-0.164l0.001 0.006v-2.088h0.402v2.057c0.002 0.032 0.004 0.070 0.004 0.108 0 0.82-0.665 1.486-1.486 1.486s-1.486-0.665-1.486-1.486c0-0.027 0.001-0.054 0.002-0.081l-0 0.004zM140.148 23.53h1.333c0.051-0.008 0.111-0.013 0.171-0.013 0.638 0 1.156 0.514 1.162 1.151v0.011c-0.025 0.661-0.566 1.187-1.231 1.187-0.059 0-0.118-0.004-0.175-0.012l0.007 0.001h-0.865v1.268h-0.403v-3.592zM141.431 25.486c0.039 0.006 0.085 0.010 0.131 0.010 0.451 0 0.82-0.353 0.845-0.799l0-0.002v-0.011c-0.007-0.44-0.366-0.794-0.807-0.794-0.053 0-0.105 0.005-0.155 0.015l0.005-0.001h-0.9v1.577h0.88z"></path>
</symbol>
<symbol id="icon-phone" viewBox="0 0 32 32">
<path fill="#7e5aff" style="fill: var(--color2, #7e5aff)" d="M26.667 30.161l-4.695-9.060c-0.011 0.005-2.632 1.293-2.752 1.348-2.987 1.448-9.065-10.427-6.145-11.992l2.777-1.368-4.657-9.089-2.808 1.385c-9.603 5.007 5.644 34.643 15.467 30.153 0.161-0.073 2.803-1.372 2.813-1.377z"></path>
</symbol>
<symbol id="icon-angle-down-circle" viewBox="0 0 32 32">
<path d="M15.976 2.656c-7.366 0-13.337 5.97-13.337 13.337s5.97 13.337 13.337 13.337 13.337-5.97 13.337-13.337-5.97-13.337-13.337-13.337zM15.976 28.262c-6.765 0-12.27-5.504-12.27-12.27s5.505-12.27 12.27-12.27 12.27 5.505 12.27 12.27c0 6.765-5.505 12.27-12.27 12.27z"></path>
<path d="M15.214 19.175l0.754 0.754 6.035-6.035-0.754-0.754-5.281 5.281-5.256-5.256-0.754 0.754 3.013 3.013z"></path>
</symbol>
<symbol class="social__icon" id="icon-facebook" viewBox="0 0 32 32">
<path   d="M19 6h5v-6h-5c-3.86 0-7 3.14-7 7v3h-4v6h4v16h6v-16h5l1-6h-6v-3c0-0.542 0.458-1 1-1z"></path>
</symbol>
<symbol id="icon-instagram" viewBox="0 0 32 32">
<path d="M16 2.881c4.275 0 4.781 0.019 6.462 0.094 1.563 0.069 2.406 0.331 2.969 0.55 0.744 0.288 1.281 0.638 1.837 1.194 0.563 0.563 0.906 1.094 1.2 1.838 0.219 0.563 0.481 1.412 0.55 2.969 0.075 1.688 0.094 2.194 0.094 6.463s-0.019 4.781-0.094 6.463c-0.069 1.563-0.331 2.406-0.55 2.969-0.288 0.744-0.637 1.281-1.194 1.837-0.563 0.563-1.094 0.906-1.837 1.2-0.563 0.219-1.413 0.481-2.969 0.55-1.688 0.075-2.194 0.094-6.463 0.094s-4.781-0.019-6.463-0.094c-1.563-0.069-2.406-0.331-2.969-0.55-0.744-0.288-1.281-0.637-1.838-1.194-0.563-0.563-0.906-1.094-1.2-1.837-0.219-0.563-0.481-1.413-0.55-2.969-0.075-1.688-0.094-2.194-0.094-6.463s0.019-4.781 0.094-6.463c0.069-1.563 0.331-2.406 0.55-2.969 0.288-0.744 0.638-1.281 1.194-1.838 0.563-0.563 1.094-0.906 1.838-1.2 0.563-0.219 1.412-0.481 2.969-0.55 1.681-0.075 2.188-0.094 6.463-0.094zM16 0c-4.344 0-4.887 0.019-6.594 0.094-1.7 0.075-2.869 0.35-3.881 0.744-1.056 0.412-1.95 0.956-2.837 1.85-0.894 0.888-1.438 1.781-1.85 2.831-0.394 1.019-0.669 2.181-0.744 3.881-0.075 1.713-0.094 2.256-0.094 6.6s0.019 4.887 0.094 6.594c0.075 1.7 0.35 2.869 0.744 3.881 0.413 1.056 0.956 1.95 1.85 2.837 0.887 0.887 1.781 1.438 2.831 1.844 1.019 0.394 2.181 0.669 3.881 0.744 1.706 0.075 2.25 0.094 6.594 0.094s4.888-0.019 6.594-0.094c1.7-0.075 2.869-0.35 3.881-0.744 1.050-0.406 1.944-0.956 2.831-1.844s1.438-1.781 1.844-2.831c0.394-1.019 0.669-2.181 0.744-3.881 0.075-1.706 0.094-2.25 0.094-6.594s-0.019-4.887-0.094-6.594c-0.075-1.7-0.35-2.869-0.744-3.881-0.394-1.063-0.938-1.956-1.831-2.844-0.887-0.887-1.781-1.438-2.831-1.844-1.019-0.394-2.181-0.669-3.881-0.744-1.712-0.081-2.256-0.1-6.6-0.1v0z"></path>
<path d="M16 7.781c-4.537 0-8.219 3.681-8.219 8.219s3.681 8.219 8.219 8.219 8.219-3.681 8.219-8.219c0-4.537-3.681-8.219-8.219-8.219zM16 21.331c-2.944 0-5.331-2.387-5.331-5.331s2.387-5.331 5.331-5.331c2.944 0 5.331 2.387 5.331 5.331s-2.387 5.331-5.331 5.331z"></path>
<path d="M26.462 7.456c0 1.060-0.859 1.919-1.919 1.919s-1.919-0.859-1.919-1.919c0-1.060 0.859-1.919 1.919-1.919s1.919 0.859 1.919 1.919z"></path>
</symbol>
<symbol id="icon-twitter" viewBox="0 0 32 32">
<path d="M32 7.075c-1.175 0.525-2.444 0.875-3.769 1.031 1.356-0.813 2.394-2.1 2.887-3.631-1.269 0.75-2.675 1.3-4.169 1.594-1.2-1.275-2.906-2.069-4.794-2.069-3.625 0-6.563 2.938-6.563 6.563 0 0.512 0.056 1.012 0.169 1.494-5.456-0.275-10.294-2.888-13.531-6.862-0.563 0.969-0.887 2.1-0.887 3.3 0 2.275 1.156 4.287 2.919 5.463-1.075-0.031-2.087-0.331-2.975-0.819 0 0.025 0 0.056 0 0.081 0 3.181 2.263 5.838 5.269 6.437-0.55 0.15-1.131 0.231-1.731 0.231-0.425 0-0.831-0.044-1.237-0.119 0.838 2.606 3.263 4.506 6.131 4.563-2.25 1.762-5.075 2.813-8.156 2.813-0.531 0-1.050-0.031-1.569-0.094 2.913 1.869 6.362 2.95 10.069 2.95 12.075 0 18.681-10.006 18.681-18.681 0-0.287-0.006-0.569-0.019-0.85 1.281-0.919 2.394-2.075 3.275-3.394z"></path>
</symbol>
</defs>
<symbol id="time" viewBox="0 0 32 32">
<path d="M16 2.667c7.352 0 13.333 5.981 13.333 13.333s-5.981 13.333-13.333 13.333-13.333-5.981-13.333-13.333 5.981-13.333 13.333-13.333zM16 0c-8.836 0-16 7.164-16 16s7.164 16 16 16 16-7.164 16-16-7.164-16-16-16zM23.797 16.612c0.269 0.051 0.269 0.444 0.001 0.496-2.543 0.481-8.060 1.481-8.729 1.481-0.959 0-1.735-0.776-1.735-1.735 0-0.683 1.027-7.263 1.5-9.927 0.045-0.256 0.416-0.241 0.457 0.019l1.313 8.317 7.192 1.348z"></path>
</svg>
</svg>
