<!-- Generated by IcoMoon.io -->
<svg version="1.1" xmlns="http://www.w3.org/2000/svg" width="32" height="32" viewBox="0 0 32 32">
<title>time</title>
<path d="M16 2.667c7.352 0 13.333 5.981 13.333 13.333s-5.981 13.333-13.333 13.333-13.333-5.981-13.333-13.333 5.981-13.333 13.333-13.333zM16 0c-8.836 0-16 7.164-16 16s7.164 16 16 16 16-7.164 16-16-7.164-16-16-16zM23.797 16.612c0.269 0.051 0.269 0.444 0.001 0.496-2.543 0.481-8.060 1.481-8.729 1.481-0.959 0-1.735-0.776-1.735-1.735 0-0.683 1.027-7.263 1.5-9.927 0.045-0.256 0.416-0.241 0.457 0.019l1.313 8.317 7.192 1.348z"></path>
</svg>
